<svg width="502" height="643" viewBox="0 0 502 643" fill="none" xmlns="http://www.w3.org/2000/svg">
<path d="M451.122 135.459V366.54L250.999 482.081L50.8779 366.54V135.459L251 19.918L451.122 135.459Z" stroke="black" stroke-width="34.5"/>
<path d="M244.702 272.417V335.582L190 367.164L135.298 335.582V272.417L190 240.835L244.702 272.417Z" stroke="black" stroke-width="20.5" stroke-miterlimit="3.30994"/>
<path d="M305.702 165.417V228.582L251 260.164L196.298 228.582V165.417L251 133.835L305.702 165.417Z" stroke="black" stroke-width="20.5" stroke-miterlimit="3.30994"/>
<path d="M366.702 272.417V335.582L312 367.164L257.298 335.582V272.417L312 240.835L366.702 272.417Z" stroke="black" stroke-width="20.5" stroke-miterlimit="3.30994"/>
<mask id="path-5-outside-1_136_703" maskUnits="userSpaceOnUse" x="60" y="544" width="381" height="77" fill="black">
<rect fill="white" x="60" y="544" width="381" height="77"/>
<path d="M61.321 619V546.273H90.0142C95.5303 546.273 100.23 547.326 104.112 549.433C107.995 551.517 110.954 554.417 112.99 558.134C115.05 561.827 116.08 566.088 116.08 570.918C116.08 575.747 115.038 580.009 112.955 583.702C110.871 587.395 107.853 590.271 103.899 592.331C99.9692 594.391 95.2107 595.42 89.6236 595.42H71.3352V583.098H87.1378C90.0971 583.098 92.5355 582.589 94.4531 581.571C96.3944 580.529 97.8385 579.097 98.7855 577.274C99.7562 575.428 100.241 573.309 100.241 570.918C100.241 568.503 99.7562 566.396 98.7855 564.597C97.8385 562.774 96.3944 561.365 94.4531 560.371C92.5118 559.353 90.0497 558.844 87.0668 558.844H76.6974V619H61.321ZM192.9 582.636C192.9 590.567 191.396 597.314 188.39 602.878C185.407 608.441 181.335 612.691 176.174 615.626C171.036 618.538 165.26 619.994 158.844 619.994C152.381 619.994 146.581 618.527 141.444 615.591C136.306 612.655 132.246 608.406 129.263 602.842C126.28 597.279 124.789 590.544 124.789 582.636C124.789 574.705 126.28 567.958 129.263 562.395C132.246 556.831 136.306 552.594 141.444 549.682C146.581 546.746 152.381 545.278 158.844 545.278C165.26 545.278 171.036 546.746 176.174 549.682C181.335 552.594 185.407 556.831 188.39 562.395C191.396 567.958 192.9 574.705 192.9 582.636ZM177.31 582.636C177.31 577.499 176.541 573.167 175.002 569.639C173.487 566.112 171.344 563.437 168.574 561.614C165.804 559.791 162.561 558.879 158.844 558.879C155.127 558.879 151.884 559.791 149.114 561.614C146.344 563.437 144.19 566.112 142.651 569.639C141.136 573.167 140.378 577.499 140.378 582.636C140.378 587.774 141.136 592.106 142.651 595.634C144.19 599.161 146.344 601.836 149.114 603.659C151.884 605.482 155.127 606.393 158.844 606.393C162.561 606.393 165.804 605.482 168.574 603.659C171.344 601.836 173.487 599.161 175.002 595.634C176.541 592.106 177.31 587.774 177.31 582.636ZM204.29 619V546.273H219.666V606.322H250.845V619H204.29ZM261.028 619V546.273H276.404V606.322H307.583V619H261.028ZM317.766 619V546.273H366.772V558.95H333.143V576.28H364.251V588.957H333.143V606.322H366.914V619H317.766ZM439.828 546.273V619H426.547L394.906 573.226H394.373V619H378.997V546.273H392.491L423.883 592.011H424.522V546.273H439.828Z"/>
</mask>
<path d="M61.321 619V546.273H90.0142C95.5303 546.273 100.23 547.326 104.112 549.433C107.995 551.517 110.954 554.417 112.99 558.134C115.05 561.827 116.08 566.088 116.08 570.918C116.08 575.747 115.038 580.009 112.955 583.702C110.871 587.395 107.853 590.271 103.899 592.331C99.9692 594.391 95.2107 595.42 89.6236 595.42H71.3352V583.098H87.1378C90.0971 583.098 92.5355 582.589 94.4531 581.571C96.3944 580.529 97.8385 579.097 98.7855 577.274C99.7562 575.428 100.241 573.309 100.241 570.918C100.241 568.503 99.7562 566.396 98.7855 564.597C97.8385 562.774 96.3944 561.365 94.4531 560.371C92.5118 559.353 90.0497 558.844 87.0668 558.844H76.6974V619H61.321ZM192.9 582.636C192.9 590.567 191.396 597.314 188.39 602.878C185.407 608.441 181.335 612.691 176.174 615.626C171.036 618.538 165.26 619.994 158.844 619.994C152.381 619.994 146.581 618.527 141.444 615.591C136.306 612.655 132.246 608.406 129.263 602.842C126.28 597.279 124.789 590.544 124.789 582.636C124.789 574.705 126.28 567.958 129.263 562.395C132.246 556.831 136.306 552.594 141.444 549.682C146.581 546.746 152.381 545.278 158.844 545.278C165.26 545.278 171.036 546.746 176.174 549.682C181.335 552.594 185.407 556.831 188.39 562.395C191.396 567.958 192.9 574.705 192.9 582.636ZM177.31 582.636C177.31 577.499 176.541 573.167 175.002 569.639C173.487 566.112 171.344 563.437 168.574 561.614C165.804 559.791 162.561 558.879 158.844 558.879C155.127 558.879 151.884 559.791 149.114 561.614C146.344 563.437 144.19 566.112 142.651 569.639C141.136 573.167 140.378 577.499 140.378 582.636C140.378 587.774 141.136 592.106 142.651 595.634C144.19 599.161 146.344 601.836 149.114 603.659C151.884 605.482 155.127 606.393 158.844 606.393C162.561 606.393 165.804 605.482 168.574 603.659C171.344 601.836 173.487 599.161 175.002 595.634C176.541 592.106 177.31 587.774 177.31 582.636ZM204.29 619V546.273H219.666V606.322H250.845V619H204.29ZM261.028 619V546.273H276.404V606.322H307.583V619H261.028ZM317.766 619V546.273H366.772V558.95H333.143V576.28H364.251V588.957H333.143V606.322H366.914V619H317.766ZM439.828 546.273V619H426.547L394.906 573.226H394.373V619H378.997V546.273H392.491L423.883 592.011H424.522V546.273H439.828Z" fill="black"/>
<path d="M61.321 619H60.321V620H61.321V619ZM61.321 546.273V545.273H60.321V546.273H61.321ZM104.112 549.433L103.635 550.312L103.639 550.314L104.112 549.433ZM112.99 558.134L112.113 558.614L112.117 558.621L112.99 558.134ZM103.899 592.331L103.437 591.444L103.435 591.445L103.899 592.331ZM71.3352 595.42H70.3352V596.42H71.3352V595.42ZM71.3352 583.098V582.098H70.3352V583.098H71.3352ZM94.4531 581.571L94.922 582.454L94.9259 582.452L94.4531 581.571ZM98.7855 577.274L97.9003 576.809L97.8981 576.813L98.7855 577.274ZM98.7855 564.597L97.8981 565.058L97.9017 565.065L97.9054 565.071L98.7855 564.597ZM94.4531 560.371L93.9887 561.256L93.9972 561.261L94.4531 560.371ZM76.6974 558.844V557.844H75.6974V558.844H76.6974ZM76.6974 619V620H77.6974V619H76.6974ZM61.321 619H62.321V546.273H61.321H60.321V619H61.321ZM61.321 546.273V547.273H90.0142V546.273V545.273H61.321V546.273ZM90.0142 546.273V547.273C95.4045 547.273 99.9311 548.302 103.635 550.312L104.112 549.433L104.589 548.554C100.528 546.35 95.6562 545.273 90.0142 545.273V546.273ZM104.112 549.433L103.639 550.314C107.358 552.31 110.174 555.074 112.113 558.614L112.99 558.134L113.867 557.653C111.734 553.759 108.631 550.723 104.585 548.552L104.112 549.433ZM112.99 558.134L112.117 558.621C114.082 562.145 115.08 566.234 115.08 570.918H116.08H117.08C117.08 565.942 116.017 561.509 113.863 557.646L112.99 558.134ZM116.08 570.918H115.08C115.08 575.599 114.071 579.687 112.084 583.21L112.955 583.702L113.826 584.193C116.005 580.33 117.08 575.895 117.08 570.918H116.08ZM112.955 583.702L112.084 583.21C110.1 586.726 107.228 589.469 103.437 591.444L103.899 592.331L104.361 593.218C108.477 591.074 111.642 588.064 113.826 584.193L112.955 583.702ZM103.899 592.331L103.435 591.445C99.6806 593.413 95.09 594.42 89.6236 594.42V595.42V596.42C95.3314 596.42 100.258 595.368 104.363 593.217L103.899 592.331ZM89.6236 595.42V594.42H71.3352V595.42V596.42H89.6236V595.42ZM71.3352 595.42H72.3352V583.098H71.3352H70.3352V595.42H71.3352ZM71.3352 583.098V584.098H87.1378V583.098V582.098H71.3352V583.098ZM87.1378 583.098V584.098C90.204 584.098 92.8172 583.572 94.922 582.454L94.4531 581.571L93.9842 580.688C92.2539 581.606 89.9901 582.098 87.1378 582.098V583.098ZM94.4531 581.571L94.9259 582.452C97.031 581.323 98.6264 579.75 99.6729 577.735L98.7855 577.274L97.8981 576.813C97.0507 578.444 95.7578 579.736 93.9803 580.69L94.4531 581.571ZM98.7855 577.274L99.6707 577.739C100.727 575.73 101.241 573.447 101.241 570.918H100.241H99.2415C99.2415 573.17 98.7852 575.126 97.9003 576.809L98.7855 577.274ZM100.241 570.918H101.241C101.241 568.367 100.728 566.091 99.6656 564.122L98.7855 564.597L97.9054 565.071C98.7842 566.7 99.2415 568.639 99.2415 570.918H100.241ZM98.7855 564.597L99.6729 564.136C98.6241 562.117 97.0231 560.564 94.909 559.481L94.4531 560.371L93.9972 561.261C95.7657 562.167 97.053 563.431 97.8981 565.058L98.7855 564.597ZM94.4531 560.371L94.9175 559.485C92.7907 558.37 90.1559 557.844 87.0668 557.844V558.844V559.844C89.9435 559.844 92.233 560.336 93.9887 561.256L94.4531 560.371ZM87.0668 558.844V557.844H76.6974V558.844V559.844H87.0668V558.844ZM76.6974 558.844H75.6974V619H76.6974H77.6974V558.844H76.6974ZM76.6974 619V618H61.321V619V620H76.6974V619ZM188.39 602.878L187.51 602.402L187.508 602.405L188.39 602.878ZM176.174 615.626L176.667 616.496L176.668 616.496L176.174 615.626ZM141.444 615.591L141.94 614.723L141.444 615.591ZM129.263 602.842L128.382 603.315L128.382 603.315L129.263 602.842ZM129.263 562.395L130.144 562.867L130.144 562.867L129.263 562.395ZM141.444 549.682L141.937 550.552L141.94 550.55L141.444 549.682ZM176.174 549.682L175.678 550.55L175.682 550.553L176.174 549.682ZM188.39 562.395L187.508 562.867L187.51 562.87L188.39 562.395ZM175.002 569.639L174.083 570.034L174.085 570.039L175.002 569.639ZM168.574 561.614L168.024 562.449L168.024 562.449L168.574 561.614ZM149.114 561.614L149.664 562.449L149.664 562.449L149.114 561.614ZM142.651 569.639L141.734 569.239L141.732 569.245L142.651 569.639ZM142.651 595.634L141.732 596.028L141.734 596.033L142.651 595.634ZM149.114 603.659L149.664 602.824L149.664 602.824L149.114 603.659ZM168.574 603.659L168.024 602.824L168.024 602.824L168.574 603.659ZM175.002 595.634L174.085 595.234L174.083 595.239L175.002 595.634ZM192.9 582.636H191.9C191.9 590.443 190.42 597.018 187.51 602.402L188.39 602.878L189.269 603.353C192.372 597.611 193.9 590.692 193.9 582.636H192.9ZM188.39 602.878L187.508 602.405C184.608 607.814 180.666 611.921 175.679 614.757L176.174 615.626L176.668 616.496C182.003 613.461 186.205 609.069 189.271 603.35L188.39 602.878ZM176.174 615.626L175.681 614.756C170.706 617.576 165.102 618.994 158.844 618.994V619.994V620.994C165.417 620.994 171.366 619.501 176.667 616.496L176.174 615.626ZM158.844 619.994V618.994C152.539 618.994 146.912 617.564 141.94 614.723L141.444 615.591L140.947 616.459C146.25 619.489 152.224 620.994 158.844 620.994V619.994ZM141.444 615.591L141.94 614.723C136.976 611.886 133.045 607.779 130.144 602.37L129.263 602.842L128.382 603.315C131.447 609.032 135.636 613.424 140.947 616.459L141.444 615.591ZM129.263 602.842L130.144 602.37C127.257 596.984 125.789 590.42 125.789 582.636H124.789H123.789C123.789 590.668 125.304 597.574 128.382 603.315L129.263 602.842ZM124.789 582.636H125.789C125.789 574.829 127.257 568.253 130.144 562.867L129.263 562.395L128.382 561.922C125.303 567.664 123.789 574.582 123.789 582.636H124.789ZM129.263 562.395L130.144 562.867C133.045 557.458 136.975 553.364 141.937 550.552L141.444 549.682L140.95 548.812C135.637 551.823 131.448 556.204 128.382 561.922L129.263 562.395ZM141.444 549.682L141.94 550.55C146.912 547.709 152.539 546.278 158.844 546.278V545.278V544.278C152.224 544.278 146.25 545.784 140.947 548.814L141.444 549.682ZM158.844 545.278V546.278C165.101 546.278 170.704 547.708 175.678 550.55L176.174 549.682L176.67 548.814C171.369 545.784 165.419 544.278 158.844 544.278V545.278ZM176.174 549.682L175.682 550.553C180.667 553.365 184.609 557.46 187.508 562.867L188.39 562.395L189.271 561.922C186.204 556.203 182.002 551.822 176.665 548.811L176.174 549.682ZM188.39 562.395L187.51 562.87C190.42 568.255 191.9 574.83 191.9 582.636H192.9H193.9C193.9 574.581 192.372 567.661 189.269 561.919L188.39 562.395ZM177.31 582.636H178.31C178.31 577.405 177.527 572.928 175.918 569.239L175.002 569.639L174.085 570.039C175.554 573.406 176.31 577.593 176.31 582.636H177.31ZM175.002 569.639L175.921 569.245C174.341 565.566 172.082 562.725 169.124 560.778L168.574 561.614L168.024 562.449C170.606 564.148 172.633 566.657 174.083 570.034L175.002 569.639ZM168.574 561.614L169.124 560.778C166.172 558.835 162.732 557.879 158.844 557.879V558.879V559.879C162.39 559.879 165.437 560.746 168.024 562.449L168.574 561.614ZM158.844 558.879V557.879C154.956 557.879 151.517 558.835 148.564 560.778L149.114 561.614L149.664 562.449C152.251 560.746 155.298 559.879 158.844 559.879V558.879ZM149.114 561.614L148.564 560.778C145.608 562.724 143.338 565.563 141.734 569.239L142.651 569.639L143.568 570.039C145.042 566.66 147.08 564.149 149.664 562.449L149.114 561.614ZM142.651 569.639L141.732 569.245C140.149 572.931 139.378 577.407 139.378 582.636H140.378H141.378C141.378 577.591 142.123 573.402 143.57 570.034L142.651 569.639ZM140.378 582.636H139.378C139.378 587.866 140.149 592.342 141.732 596.028L142.651 595.634L143.57 595.239C142.123 591.871 141.378 587.681 141.378 582.636H140.378ZM142.651 595.634L141.734 596.033C143.338 599.709 145.608 602.549 148.564 604.494L149.114 603.659L149.664 602.824C147.08 601.124 145.042 598.613 143.568 595.234L142.651 595.634ZM149.114 603.659L148.564 604.494C151.517 606.437 154.956 607.393 158.844 607.393V606.393V605.393C155.298 605.393 152.251 604.527 149.664 602.824L149.114 603.659ZM158.844 606.393V607.393C162.732 607.393 166.172 606.437 169.124 604.494L168.574 603.659L168.024 602.824C165.437 604.527 162.39 605.393 158.844 605.393V606.393ZM168.574 603.659L169.124 604.494C172.082 602.548 174.341 599.706 175.921 596.028L175.002 595.634L174.083 595.239C172.633 598.616 170.606 601.125 168.024 602.824L168.574 603.659ZM175.002 595.634L175.918 596.033C177.527 592.345 178.31 587.868 178.31 582.636H177.31H176.31C176.31 587.68 175.554 591.867 174.085 595.234L175.002 595.634ZM204.29 619H203.29V620H204.29V619ZM204.29 546.273V545.273H203.29V546.273H204.29ZM219.666 546.273H220.666V545.273H219.666V546.273ZM219.666 606.322H218.666V607.322H219.666V606.322ZM250.845 606.322H251.845V605.322H250.845V606.322ZM250.845 619V620H251.845V619H250.845ZM204.29 619H205.29V546.273H204.29H203.29V619H204.29ZM204.29 546.273V547.273H219.666V546.273V545.273H204.29V546.273ZM219.666 546.273H218.666V606.322H219.666H220.666V546.273H219.666ZM219.666 606.322V607.322H250.845V606.322V605.322H219.666V606.322ZM250.845 606.322H249.845V619H250.845H251.845V606.322H250.845ZM250.845 619V618H204.29V619V620H250.845V619ZM261.028 619H260.028V620H261.028V619ZM261.028 546.273V545.273H260.028V546.273H261.028ZM276.404 546.273H277.404V545.273H276.404V546.273ZM276.404 606.322H275.404V607.322H276.404V606.322ZM307.583 606.322H308.583V605.322H307.583V606.322ZM307.583 619V620H308.583V619H307.583ZM261.028 619H262.028V546.273H261.028H260.028V619H261.028ZM261.028 546.273V547.273H276.404V546.273V545.273H261.028V546.273ZM276.404 546.273H275.404V606.322H276.404H277.404V546.273H276.404ZM276.404 606.322V607.322H307.583V606.322V605.322H276.404V606.322ZM307.583 606.322H306.583V619H307.583H308.583V606.322H307.583ZM307.583 619V618H261.028V619V620H307.583V619ZM317.766 619H316.766V620H317.766V619ZM317.766 546.273V545.273H316.766V546.273H317.766ZM366.772 546.273H367.772V545.273H366.772V546.273ZM366.772 558.95V559.95H367.772V558.95H366.772ZM333.143 558.95V557.95H332.143V558.95H333.143ZM333.143 576.28H332.143V577.28H333.143V576.28ZM364.251 576.28H365.251V575.28H364.251V576.28ZM364.251 588.957V589.957H365.251V588.957H364.251ZM333.143 588.957V587.957H332.143V588.957H333.143ZM333.143 606.322H332.143V607.322H333.143V606.322ZM366.914 606.322H367.914V605.322H366.914V606.322ZM366.914 619V620H367.914V619H366.914ZM317.766 619H318.766V546.273H317.766H316.766V619H317.766ZM317.766 546.273V547.273H366.772V546.273V545.273H317.766V546.273ZM366.772 546.273H365.772V558.95H366.772H367.772V546.273H366.772ZM366.772 558.95V557.95H333.143V558.95V559.95H366.772V558.95ZM333.143 558.95H332.143V576.28H333.143H334.143V558.95H333.143ZM333.143 576.28V577.28H364.251V576.28V575.28H333.143V576.28ZM364.251 576.28H363.251V588.957H364.251H365.251V576.28H364.251ZM364.251 588.957V587.957H333.143V588.957V589.957H364.251V588.957ZM333.143 588.957H332.143V606.322H333.143H334.143V588.957H333.143ZM333.143 606.322V607.322H366.914V606.322V605.322H333.143V606.322ZM366.914 606.322H365.914V619H366.914H367.914V606.322H366.914ZM366.914 619V618H317.766V619V620H366.914V619ZM439.828 546.273H440.828V545.273H439.828V546.273ZM439.828 619V620H440.828V619H439.828ZM426.547 619L425.724 619.569L426.022 620H426.547V619ZM394.906 573.226L395.729 572.657L395.43 572.226H394.906V573.226ZM394.373 573.226V572.226H393.373V573.226H394.373ZM394.373 619V620H395.373V619H394.373ZM378.997 619H377.997V620H378.997V619ZM378.997 546.273V545.273H377.997V546.273H378.997ZM392.491 546.273L393.316 545.707L393.018 545.273H392.491V546.273ZM423.883 592.011L423.059 592.577L423.357 593.011H423.883V592.011ZM424.522 592.011V593.011H425.522V592.011H424.522ZM424.522 546.273V545.273H423.522V546.273H424.522ZM439.828 546.273H438.828V619H439.828H440.828V546.273H439.828ZM439.828 619V618H426.547V619V620H439.828V619ZM426.547 619L427.369 618.431L395.729 572.657L394.906 573.226L394.083 573.794L425.724 619.569L426.547 619ZM394.906 573.226V572.226H394.373V573.226V574.226H394.906V573.226ZM394.373 573.226H393.373V619H394.373H395.373V573.226H394.373ZM394.373 619V618H378.997V619V620H394.373V619ZM378.997 619H379.997V546.273H378.997H377.997V619H378.997ZM378.997 546.273V547.273H392.491V546.273V545.273H378.997V546.273ZM392.491 546.273L391.667 546.839L423.059 592.577L423.883 592.011L424.708 591.445L393.316 545.707L392.491 546.273ZM423.883 592.011V593.011H424.522V592.011V591.011H423.883V592.011ZM424.522 592.011H425.522V546.273H424.522H423.522V592.011H424.522ZM424.522 546.273V547.273H439.828V546.273V545.273H424.522V546.273Z" fill="black" mask="url(#path-5-outside-1_136_703)"/>
</svg>
