<svg width="51" height="50" viewBox="0 0 51 50" fill="none" xmlns="http://www.w3.org/2000/svg">
<path d="M38.4727 9.22168V24.7773L25 32.5566L11.5273 24.7773V9.22168L25 1.44238L38.4727 9.22168Z" stroke="#FFC61A" stroke-width="2.5"/>
<path d="M24.875 9.93848C24.9524 9.89382 25.0476 9.89382 25.125 9.93848L28.4551 11.8613C28.5323 11.906 28.58 11.988 28.5801 12.0771V15.9229C28.58 16.012 28.5323 16.094 28.4551 16.1387L25.125 18.0615C25.0476 18.1062 24.9524 18.1062 24.875 18.0615L21.5449 16.1387C21.4677 16.094 21.42 16.012 21.4199 15.9229V12.0771C21.42 11.988 21.4677 11.906 21.5449 11.8613L24.875 9.93848Z" stroke="#FFC61A" stroke-width="1.5" stroke-miterlimit="3.30994"/>
<path d="M20.875 15.9385C20.9524 15.8938 21.0476 15.8938 21.125 15.9385L24.4551 17.8613C24.5323 17.906 24.58 17.988 24.5801 18.0771V21.9229C24.58 22.012 24.5323 22.094 24.4551 22.1387L21.125 24.0615C21.0476 24.1062 20.9524 24.1062 20.875 24.0615L17.5449 22.1387C17.4677 22.094 17.42 22.012 17.4199 21.9229V18.0771C17.42 17.988 17.4677 17.906 17.5449 17.8613L20.875 15.9385Z" stroke="#FFC61A" stroke-width="1.5" stroke-miterlimit="3.30994"/>
<path d="M28.875 15.9385C28.9524 15.8938 29.0476 15.8938 29.125 15.9385L32.4551 17.8613C32.5323 17.906 32.58 17.988 32.5801 18.0771V21.9229C32.58 22.012 32.5323 22.094 32.4551 22.1387L29.125 24.0615C29.0476 24.1062 28.9524 24.1062 28.875 24.0615L25.5449 22.1387C25.4677 22.094 25.42 22.012 25.4199 21.9229V18.0771C25.42 17.988 25.4677 17.906 25.5449 17.8613L28.875 15.9385Z" stroke="#FFC61A" stroke-width="1.5" stroke-miterlimit="3.30994"/>
<path d="M0.821733 47V37.5455H4.55185C5.26894 37.5455 5.87985 37.6824 6.38459 37.9563C6.88932 38.2272 7.27403 38.6042 7.53871 39.0874C7.80646 39.5675 7.94034 40.1214 7.94034 40.7493C7.94034 41.3771 7.80492 41.9311 7.53409 42.4112C7.26326 42.8913 6.87086 43.2653 6.35689 43.533C5.846 43.8008 5.22739 43.9347 4.50107 43.9347H2.12358V42.3327H4.17791C4.56262 42.3327 4.87962 42.2666 5.12891 42.1342C5.38127 41.9988 5.56901 41.8126 5.69212 41.5756C5.8183 41.3356 5.88139 41.0601 5.88139 40.7493C5.88139 40.4354 5.8183 40.1615 5.69212 39.9276C5.56901 39.6906 5.38127 39.5075 5.12891 39.3782C4.87654 39.2459 4.55646 39.1797 4.16868 39.1797H2.82067V47H0.821733ZM17.9269 42.2727C17.9269 43.3037 17.7315 44.1809 17.3406 44.9041C16.9529 45.6274 16.4235 46.1798 15.7526 46.5614C15.0847 46.94 14.3338 47.1293 13.4997 47.1293C12.6595 47.1293 11.9055 46.9384 11.2377 46.5568C10.5698 46.1752 10.042 45.6228 9.65421 44.8995C9.26642 44.1763 9.07253 43.3007 9.07253 42.2727C9.07253 41.2417 9.26642 40.3646 9.65421 39.6413C10.042 38.9181 10.5698 38.3672 11.2377 37.9886C11.9055 37.607 12.6595 37.4162 13.4997 37.4162C14.3338 37.4162 15.0847 37.607 15.7526 37.9886C16.4235 38.3672 16.9529 38.9181 17.3406 39.6413C17.7315 40.3646 17.9269 41.2417 17.9269 42.2727ZM15.9003 42.2727C15.9003 41.6049 15.8003 41.0417 15.6002 40.5831C15.4033 40.1245 15.1247 39.7768 14.7646 39.5398C14.4046 39.3028 13.9829 39.1843 13.4997 39.1843C13.0165 39.1843 12.5949 39.3028 12.2348 39.5398C11.8747 39.7768 11.5947 40.1245 11.3946 40.5831C11.1977 41.0417 11.0992 41.6049 11.0992 42.2727C11.0992 42.9406 11.1977 43.5038 11.3946 43.9624C11.5947 44.4209 11.8747 44.7687 12.2348 45.0057C12.5949 45.2427 13.0165 45.3612 13.4997 45.3612C13.9829 45.3612 14.4046 45.2427 14.7646 45.0057C15.1247 44.7687 15.4033 44.4209 15.6002 43.9624C15.8003 43.5038 15.9003 42.9406 15.9003 42.2727ZM19.4077 47V37.5455H21.4066V45.3519H25.4599V47H19.4077ZM26.7836 47V37.5455H28.7826V45.3519H32.8358V47H26.7836ZM34.1596 47V37.5455H40.5304V39.1935H36.1586V41.4464H40.2026V43.0945H36.1586V45.3519H40.5488V47H34.1596ZM50.0276 37.5455V47H48.301L44.1878 41.0494H44.1185V47H42.1196V37.5455H43.8738L47.9548 43.4915H48.0379V37.5455H50.0276Z" fill="#FFC61A"/>
</svg>
